<svg width="48" height="48" viewBox="0 0 48 48" fill="none" xmlns="http://www.w3.org/2000/svg">
  <!-- Background circle -->
  <circle cx="24" cy="24" r="22" fill="url(#gradient)" stroke="#3B82F6" stroke-width="2"/>
  
  <!-- Beacon/Lighthouse -->
  <g transform="translate(12, 8)">
    <!-- Lighthouse base -->
    <rect x="6" y="16" width="12" height="16" fill="#1E40AF" rx="2"/>
    
    <!-- Lighthouse tower -->
    <rect x="8" y="6" width="8" height="10" fill="#3B82F6" rx="1"/>
    
    <!-- Light beam -->
    <path d="M12 6 L6 0 L18 0 Z" fill="#FCD34D" opacity="0.9"/>
    
    <!-- Light rays -->
    <path d="M12 6 L3 2 L21 2 Z" fill="#F59E0B" opacity="0.7"/>
    
    <!-- Lighthouse top -->
    <circle cx="12" cy="4" r="2.5" fill="#FCD34D"/>
    
    <!-- Windows -->
    <rect x="10" y="9" width="1.5" height="1.5" fill="#FCD34D" rx="0.3"/>
    <rect x="12.5" y="9" width="1.5" height="1.5" fill="#FCD34D" rx="0.3"/>
    <rect x="10" y="12" width="1.5" height="1.5" fill="#FCD34D" rx="0.3"/>
    <rect x="12.5" y="12" width="1.5" height="1.5" fill="#FCD34D" rx="0.3"/>
  </g>
  
  <!-- Travel icons around the beacon -->
  <!-- Plane -->
  <circle cx="8" cy="8" r="2" fill="#10B981" opacity="0.8"/>
  <path d="M6 8 L10 8 M8 6 L8 10" stroke="#FCD34D" stroke-width="1"/>
  
  <!-- Hotel -->
  <rect x="36" y="8" width="4" height="6" fill="#10B981" rx="0.5"/>
  <rect x="37" y="9" width="1" height="1" fill="#FCD34D" rx="0.2"/>
  <rect x="39" y="9" width="1" height="1" fill="#FCD34D" rx="0.2"/>
  
  <!-- Food -->
  <circle cx="8" cy="36" r="2" fill="#EF4444" opacity="0.8"/>
  <path d="M6 36 L10 36 M8 34 L8 38" stroke="#FCD34D" stroke-width="1"/>
  
  <!-- Shopping -->
  <rect x="36" y="34" width="4" height="4" fill="#F59E0B" rx="0.5"/>
  <path d="M37 35 L39 35 M38 34 L38 36" stroke="#FCD34D" stroke-width="0.5"/>
  
  <!-- Gradient definition -->
  <defs>
    <linearGradient id="gradient" x1="0%" y1="0%" x2="100%" y2="100%">
      <stop offset="0%" style="stop-color:#DBEAFE;stop-opacity:1" />
      <stop offset="100%" style="stop-color:#3B82F6;stop-opacity:0.4" />
    </linearGradient>
  </defs>
</svg>
